<svg xmlns="http://www.w3.org/2000/svg" xmlns:xlink="http://www.w3.org/1999/xlink" style="vertical-align:-.755ex" width="1.202ex" height="2.009ex" viewBox="0 -540.2 517.5 865.1"><defs><path id="a" stroke-width="1" d="M58-216q-33 0-35 30 0 10 50 212t54 208q16 55 55 107 70 86 159 100h8q6 0 10 1 73 0 112-48t39-118q0-57-24-111t-61-91-80-61-79-23h-18q-51 0-83 45l-5 6-27-112q-25-97-29-110t-12-21q-16-14-34-14zm366 538q0 37-17 60t-50 23q-35 0-70-29t-56-76q-14-31-38-130l-17-68q17-76 84-76 38 0 74 36 33 30 55 96t29 108 6 56z"/></defs><use fill="currentColor" stroke="currentColor" stroke-width="0" transform="scale(1 -1)" xlink:href="#a"/></svg>